<?xml version="1.0" encoding="utf-8"?>
<!-- Generator: Adobe Illustrator 18.0.0, SVG Export Plug-In . SVG Version: 6.00 Build 0)  -->
<!DOCTYPE svg PUBLIC "-//W3C//DTD SVG 1.1//EN" "http://www.w3.org/Graphics/SVG/1.1/DTD/svg11.dtd">
<svg version="1.1" id="Layer_1" xmlns="http://www.w3.org/2000/svg" xmlns:xlink="http://www.w3.org/1999/xlink" x="0px" y="0px"
	 viewBox="0 0 1024 1024" enable-background="new 0 0 1024 1024" xml:space="preserve">
<g id="TYPE_A">
	<g>
		<path fill="#FFFFFF" d="M812.2,497.8c0-134-134.3-242.8-299.4-242.8c-165.1,0-299.4,109.1-299.4,243
			c0,120.1,106.5,220.7,250.4,239.7c9.7,2.1,23,6.4,26.4,14.8c3,7.6,2,19.4,1,27.1c0,0-3.5,21.1-4.3,25.6c-1.3,7.6-6,29.3,25.9,15.8
			C544.8,807.6,685.2,722,748,647h0C791.4,602,812.2,551.4,812.2,497.8z M404,569.6c0,3.2,0.6,9.4-2.6,9.4h-83.9h0
			c-1.6,0-3-2.4-4-3.4c0,0-0.1-0.9-0.1-1c0,0,0.6-0.5,0.6-0.5c-1-1-1-2.9-1-4.5v0V439.2c0-3.2,1.3-4.2,4.5-4.2h21
			c3.2,0,2.5,1,2.5,4.2V544h60.4c3.2,0,2.6,1.4,2.6,4.6V569.6z M462,572.5c0,3.2-2.4,6.5-5.6,6.5h-22.8c-3.2,0-5.6-3.3-5.6-6.5
			V440.7c0-3.2,2.4-5.7,5.6-5.7h22.8c3.2,0,5.6,2.4,5.6,5.7V572.5z M600,569.6c0,3.2-0.2,9.4-3.5,9.4h-21c-0.5,0-1-1.8-1.5-2
			c0,0-0.1-0.9-0.1-0.9c-0.1,0-0.3-0.5-0.4-0.6c-0.1,0-0.1-0.3-0.2-0.3c-0.1,0-0.2-0.2-0.3-0.2c-0.1,0-0.2-0.1-0.3-0.2
			c-0.1,0-0.1-0.1-0.2-0.1c-0.1-0.1-0.2-0.2-0.4-0.2c0,0,0,0-0.1-0.1c-0.6-0.4-2.5-0.9-2.9-1.4L508,492.2v77.5
			c0,3.2,0.3,9.4-2.9,9.4h-21c-3.2,0-5.1-6.1-5.1-9.4V439.2c0-3.2,1.9-4.2,5.1-4.2h21c0.1,0,0.1-0.8,0.2-0.8c0.1,0,0.2-0.4,0.3-0.4
			c0.1,0,0.2-0.2,0.3-0.2c0.1,0,0.2-0.1,0.2-0.1c0.1,0,0.2,0,0.3,0c0.1,0,0.1,0,0.2,0c0.1,0,0.2,0.1,0.3,0.1c0.1,0,0.1,0,0.2,0.1
			c0.1,0,0.2,0.1,0.3,0.1c0.1,0,0.1,0.1,0.2,0.1c0.1,0.1,0.2,0.1,0.3,0.2c0.1,0,0.1,0.1,0.2,0.1c0.1,0.1,0.2,0.1,0.3,0.2
			c0.1,0,0.1,0.1,0.2,0.1c0.1,0.1,0.2,0.2,0.3,0.3c0,0,0.1,0.1,0.1,0.1c0.1,0.1,0.2,0.2,0.3,0.4c0,0,0,0,0,0c0.2,0.2,1,0.4,1.1,0.6
			l60.4,80.7v-77.5c0-3.2,1.3-4.2,4.5-4.2h21c3.2,0,3.5,1,3.5,4.2V569.6z M721,460.2c0,3.2-5.3,3.8-8.5,3.8H658v22h54.5
			c3.2,0,8.5,4.7,8.5,7.9v21c0,3.2-5.3,6.1-8.5,6.1H658v23h54.5c3.2,0,8.5,1.4,8.5,4.6v21c0,3.2-5.3,9.4-8.5,9.4h-83.9h0
			c-1.6,0-3-2.4-4-3.4c0,0-0.1-0.9-0.1-1c0,0,0.1-0.5,0-0.5c-1-1-1.5-2.9-1.5-4.5v0V439.2v0c0-1.6,0.5-3,1.5-4c0,0,0-0.1,0-0.1
			c0,0,0,0.8,0,0.7c1.1-1,2.4-0.8,4-0.8h0h83.9c3.2,0,8.5,1,8.5,4.2V460.2z"/>
	</g>
</g>
</svg>
