<?xml version="1.0" encoding="utf-8"?>
<!-- Generator: Adobe Illustrator 18.0.0, SVG Export Plug-In . SVG Version: 6.00 Build 0)  -->
<!DOCTYPE svg PUBLIC "-//W3C//DTD SVG 1.1//EN" "http://www.w3.org/Graphics/SVG/1.1/DTD/svg11.dtd">
<svg version="1.1" id="Layer_1" xmlns="http://www.w3.org/2000/svg" xmlns:xlink="http://www.w3.org/1999/xlink" x="0px" y="0px"
	 viewBox="0 0 1024 1024" enable-background="new 0 0 1024 1024" xml:space="preserve">
<g>
	<path fill="#BBBBBB" d="M473.6,400.1l-240.9-79.1c-0.6-0.2-1.1,0.2-1.1,0.8l0.5,488.1c0,0.9,1.2,1.2,1.7,0.4l240.5-408.9
		C474.4,400.9,474.2,400.3,473.6,400.1z M341.6,612.7l-88.3,150.1c-0.5,0.9-1.9,0.3-1.6-0.7l78.6-240c0.1-0.2,0.1-0.3,0.3-0.4
		l96.2-79.5l25.3-20.9c0.8-0.7,1.9,0.3,1.3,1.1L341.6,612.7z M328.1,513.1l-85.4-179.8c-0.4-0.7,0.4-1.4,1.1-1.2l216.8,71.2
		c0.7,0.2,0.8,1.1,0.3,1.5L329.5,513.4C329.1,513.7,328.4,513.6,328.1,513.1z"/>
	<path fill="#BBBBBB" d="M494.1,366.4c0.4,0.1,0.8,0,1-0.2l130.6-159.8c0.5-0.7-0.1-1.6-0.9-1.4l-354.5,76c-0.8,0.2-1,1.4-0.1,1.7
		L494.1,366.4z M593.9,234l-95.3,116.6c-0.5,0.7-1.6,0.3-1.6-0.5l-0.7-47.2c0-0.3,0.1-0.5,0.4-0.7l96.1-69.5
		C593.5,232.1,594.5,233.2,593.9,234z M489.1,304.8l0.8,51.1c0,0.6-0.6,1.1-1.2,0.8l-177.1-66.3c-1-0.4-0.7-1.8,0.4-1.7l176.3,15.2
		C488.7,304,489.1,304.4,489.1,304.8z"/>
	<path fill="#BBBBBB" d="M791.5,819.2c1,0,1.3-1.4,0.3-1.7l-419.9-152c-1.6-0.6-3.4,0.1-4.3,1.5l-89.2,145.3c-1.4,2.3,0.2,5.4,3,5.4
		L791.5,819.2z M372.1,675.4l87.6,89.1c0.5,0.5,0.2,1.3-0.4,1.5L291.1,808c-0.8,0.2-1.4-0.7-1-1.3l80.5-131.1
		C371,675.1,371.7,675,372.1,675.4z M469.2,764l-82.3-83.7c-0.7-0.7,0.1-1.8,1-1.4l251.4,91l92.6,33.5c1,0.4,0.6,1.9-0.4,1.7
		l-261.7-40.8C469.5,764.2,469.4,764.1,469.2,764z"/>
</g>
</svg>
