<?xml version="1.0" encoding="utf-8"?>
<!-- Generator: Adobe Illustrator 18.0.0, SVG Export Plug-In . SVG Version: 6.00 Build 0)  -->
<!DOCTYPE svg PUBLIC "-//W3C//DTD SVG 1.1//EN" "http://www.w3.org/Graphics/SVG/1.1/DTD/svg11.dtd">
<svg version="1.1" id="Layer_1" xmlns="http://www.w3.org/2000/svg" xmlns:xlink="http://www.w3.org/1999/xlink" x="0px" y="0px"
	 viewBox="0 0 1024 1024" enable-background="new 0 0 1024 1024" xml:space="preserve">
<g>
	<path fill="#616161" d="M448,325L46.5,193.1c-1-0.3-1.9,0.4-1.9,1.4l0.8,813.4c0,1.5,2,2,2.8,0.7l400.8-681.5
		C449.3,326.4,448.9,325.3,448,325z M228,679.3L80.9,929.4c-0.9,1.5-3.2,0.5-2.7-1.2l131-399.9c0.1-0.3,0.2-0.5,0.5-0.7l160.4-132.5
		l42.2-34.9c1.3-1.1,3.1,0.5,2.2,1.9L228,679.3z M205.5,513.3L63.2,213.7c-0.6-1.2,0.6-2.4,1.8-2l361.3,118.7
		c1.1,0.4,1.4,1.8,0.5,2.5l-219,180.9C207.1,514.4,206,514.2,205.5,513.3z"/>
	<path fill="#616161" d="M482.2,268.8c0.6,0.2,1.3,0,1.7-0.4L701.5,2c0.9-1.1-0.1-2.7-1.5-2.4L109.2,126.3c-1.4,0.3-1.6,2.3-0.2,2.8
		L482.2,268.8z M648.4,48.3L489.5,242.7c-0.9,1.1-2.6,0.5-2.6-0.9l-1.2-78.6c0-0.5,0.2-0.9,0.6-1.2L646.4,46.1
		C647.8,45.1,649.5,46.9,648.4,48.3z M473.8,166.3l1.4,85.1c0,1-1,1.8-2,1.4L178,142.3c-1.6-0.6-1.1-3,0.6-2.9l293.8,25.4
		C473.2,164.9,473.8,165.5,473.8,166.3z"/>
	<path fill="#616161" d="M977.8,1023.5c1.7,0,2.1-2.3,0.5-2.9L278.5,767.3c-2.6-1-5.6,0.1-7.1,2.5l-148.7,242.1c-2.4,3.9,0.4,9,5,9
		L977.8,1023.5z M278.8,783.8l146,148.5c0.8,0.8,0.4,2.2-0.7,2.5l-280.3,70.1c-1.3,0.3-2.3-1.1-1.6-2.2l134.2-218.5
		C277,783.3,278.2,783.1,278.8,783.8z M440.7,931.5L303.5,792c-1.1-1.1,0.1-3,1.6-2.4l419,151.6l154.3,55.8c1.7,0.6,1,3.1-0.7,2.9
		l-436.1-68C441.2,931.8,440.9,931.7,440.7,931.5z"/>
</g>
</svg>
